STARTFONT 2.1
FONT -HP-HP System-Bold-R-Normal--17-140-85-85-P-100-ISO8859-5
SIZE 14 85 85
FONTBOUNDINGBOX 13 17 0 -4

STARTPROPERTIES 26
COPYRIGHT "Copyright (c) 1994-95, Hewlett-Packard Co. All rights reserved."
NOTICE "This Font is licensed for use on Hewlett-Packard Equipment only."
FONTNAME_REGISTRY ""
FAMILY_NAME "HP System"
FOUNDRY "HP"
WEIGHT_NAME "Bold"
SETWIDTH_NAME "Normal"
SLANT "R"
ADD_STYLE_NAME "Sans Serif"
PIXEL_SIZE 17
POINT_SIZE 140
RESOLUTION_X 85
RESOLUTION_Y 85
SPACING "P"
AVERAGE_WIDTH 100
CHARSET_REGISTRY "ISO8859"
CHARSET_ENCODING "5"
CHARSET_COLLECTIONS "ISO8859-5"
FULL_NAME "HP System17"
CAP_HEIGHT 10
X_HEIGHT 7
WEIGHT 10
QUAD_WIDTH 9
DEFAULT_CHAR 32
FONT_DESCENT 4
FONT_ASCENT 13
ENDPROPERTIES

CHARS 192

STARTCHAR space
ENCODING 32
SWIDTH 242 0
DWIDTH 4 0
BBX 1 1 0 0
BITMAP
00
ENDCHAR

STARTCHAR exclam
ENCODING 33
SWIDTH 363 0
DWIDTH 6 0
BBX 2 12 2 -1
BITMAP
C0
C0
C0
C0
C0
C0
C0
C0
C0
00
C0
C0
ENDCHAR

STARTCHAR quotedbl
ENCODING 34
SWIDTH 302 0
DWIDTH 5 0
BBX 3 5 1 6
BITMAP
A0
A0
A0
A0
A0
ENDCHAR

STARTCHAR numbersign
ENCODING 35
SWIDTH 605 0
DWIDTH 10 0
BBX 10 12 0 -1
BITMAP
1100
3300
3300
3300
FFC0
3300
3300
3300
FFC0
3300
3300
3300
ENDCHAR

STARTCHAR dollar
ENCODING 36
SWIDTH 544 0
DWIDTH 9 0
BBX 7 14 1 -2
BITMAP
10
10
7C
D6
D6
F0
78
1C
16
D6
D6
7C
10
10
ENDCHAR

STARTCHAR percent
ENCODING 37
SWIDTH 786 0
DWIDTH 13 0
BBX 11 12 1 -1
BITMAP
7180
D900
DB00
DA00
7600
0400
0400
0DC0
0B60
1B60
1360
31C0
ENDCHAR

STARTCHAR ampersand
ENCODING 38
SWIDTH 544 0
DWIDTH 9 0
BBX 8 12 1 -1
BITMAP
7C
C6
C0
C0
C4
66
FF
C6
C6
C6
C7
7E
ENDCHAR

STARTCHAR apostrophe
ENCODING 39
SWIDTH 302 0
DWIDTH 5 0
BBX 3 4 1 7
BITMAP
60
60
C0
80
ENDCHAR

STARTCHAR parenleft
ENCODING 40
SWIDTH 363 0
DWIDTH 6 0
BBX 4 14 1 -2
BITMAP
30
60
60
C0
C0
C0
C0
C0
C0
C0
C0
60
60
30
ENDCHAR

STARTCHAR parenright
ENCODING 41
SWIDTH 363 0
DWIDTH 6 0
BBX 4 14 1 -2
BITMAP
C0
60
60
30
30
30
30
30
30
30
30
60
60
C0
ENDCHAR

STARTCHAR asterisk
ENCODING 42
SWIDTH 605 0
DWIDTH 10 0
BBX 8 8 1 1
BITMAP
18
DB
DB
3C
3C
DB
DB
18
ENDCHAR

STARTCHAR plus
ENCODING 43
SWIDTH 605 0
DWIDTH 10 0
BBX 8 8 1 1
BITMAP
18
18
18
FF
FF
18
18
18
ENDCHAR

STARTCHAR comma
ENCODING 44
SWIDTH 302 0
DWIDTH 5 0
BBX 3 4 0 -2
BITMAP
60
60
C0
80
ENDCHAR

STARTCHAR minus
ENCODING 45
SWIDTH 605 0
DWIDTH 10 0
BBX 8 2 1 4
BITMAP
FF
FF
ENDCHAR

STARTCHAR period
ENCODING 46
SWIDTH 302 0
DWIDTH 5 0
BBX 2 2 1 0
BITMAP
C0
C0
ENDCHAR

STARTCHAR slash
ENCODING 47
SWIDTH 484 0
DWIDTH 8 0
BBX 8 14 0 -2
BITMAP
03
03
06
06
0C
0C
18
18
30
30
60
60
C0
C0
ENDCHAR

STARTCHAR 0
ENCODING 48
SWIDTH 544 0
DWIDTH 9 0
BBX 7 10 1 0
BITMAP
7C
C6
C6
C6
C6
C6
C6
C6
C6
7C
ENDCHAR

STARTCHAR 1
ENCODING 49
SWIDTH 544 0
DWIDTH 9 0
BBX 4 10 3 0
BITMAP
30
70
F0
30
30
30
30
30
30
30
ENDCHAR

STARTCHAR 2
ENCODING 50
SWIDTH 544 0
DWIDTH 9 0
BBX 7 10 1 0
BITMAP
7C
E6
C6
06
0E
1C
38
70
E0
FE
ENDCHAR

STARTCHAR 3
ENCODING 51
SWIDTH 544 0
DWIDTH 9 0
BBX 7 10 1 0
BITMAP
7C
C6
C6
0E
3C
0E
06
C6
C6
7C
ENDCHAR

STARTCHAR 4
ENCODING 52
SWIDTH 544 0
DWIDTH 9 0
BBX 7 10 1 0
BITMAP
1C
1C
3C
2C
6C
4C
CC
FE
0C
0C
ENDCHAR

STARTCHAR 5
ENCODING 53
SWIDTH 544 0
DWIDTH 9 0
BBX 7 10 1 0
BITMAP
FE
C0
C0
FC
CE
06
06
06
CE
7C
ENDCHAR

STARTCHAR 6
ENCODING 54
SWIDTH 544 0
DWIDTH 9 0
BBX 7 10 1 0
BITMAP
7C
C6
C6
C0
FC
C6
C6
C6
C6
7C
ENDCHAR

STARTCHAR 7
ENCODING 55
SWIDTH 544 0
DWIDTH 9 0
BBX 7 10 1 0
BITMAP
FE
06
0C
0C
18
18
30
30
60
60
ENDCHAR

STARTCHAR 8
ENCODING 56
SWIDTH 544 0
DWIDTH 9 0
BBX 7 10 1 0
BITMAP
7C
C6
C6
C6
7C
C6
C6
C6
C6
7C
ENDCHAR

STARTCHAR 9
ENCODING 57
SWIDTH 544 0
DWIDTH 9 0
BBX 7 10 1 0
BITMAP
7C
C6
C6
C6
C6
7E
06
C6
C6
7C
ENDCHAR

STARTCHAR colon
ENCODING 58
SWIDTH 242 0
DWIDTH 4 0
BBX 2 7 1 0
BITMAP
C0
C0
00
00
00
C0
C0
ENDCHAR

STARTCHAR semicolon
ENCODING 59
SWIDTH 242 0
DWIDTH 4 0
BBX 3 9 0 -2
BITMAP
60
60
00
00
00
60
60
C0
80
ENDCHAR

STARTCHAR less
ENCODING 60
SWIDTH 726 0
DWIDTH 12 0
BBX 10 8 1 1
BITMAP
01C0
0FC0
3E00
F000
F000
3E00
0FC0
01C0
ENDCHAR

STARTCHAR equal
ENCODING 61
SWIDTH 605 0
DWIDTH 10 0
BBX 8 6 1 2
BITMAP
FF
FF
00
00
FF
FF
ENDCHAR

STARTCHAR greater
ENCODING 62
SWIDTH 726 0
DWIDTH 12 0
BBX 10 8 1 1
BITMAP
E000
FC00
1F00
03C0
03C0
1F00
FC00
E000
ENDCHAR

STARTCHAR question
ENCODING 63
SWIDTH 544 0
DWIDTH 9 0
BBX 7 12 1 -1
BITMAP
7C
CE
C6
06
0E
1C
38
30
30
00
30
30
ENDCHAR

STARTCHAR at
ENCODING 64
SWIDTH 786 0
DWIDTH 13 0
BBX 10 12 2 -1
BITMAP
1E00
7300
6180
CF80
D980
D980
D980
D980
CEC0
6000
7000
1F00
ENDCHAR

STARTCHAR A
ENCODING 65
SWIDTH 605 0
DWIDTH 10 0
BBX 10 10 0 0
BITMAP
0C00
0C00
1E00
1200
3300
3300
7F80
6180
C0C0
C0C0
ENDCHAR

STARTCHAR B
ENCODING 66
SWIDTH 544 0
DWIDTH 9 0
BBX 7 10 1 0
BITMAP
FC
C6
C6
C6
FC
C6
C6
C6
C6
FC
ENDCHAR

STARTCHAR C
ENCODING 67
SWIDTH 665 0
DWIDTH 11 0
BBX 9 10 1 0
BITMAP
3E00
6300
C180
C000
C000
C000
C000
C180
6300
3E00
ENDCHAR

STARTCHAR D
ENCODING 68
SWIDTH 605 0
DWIDTH 10 0
BBX 8 10 1 0
BITMAP
FC
C6
C3
C3
C3
C3
C3
C3
C6
FC
ENDCHAR

STARTCHAR E
ENCODING 69
SWIDTH 544 0
DWIDTH 9 0
BBX 7 10 1 0
BITMAP
FE
C0
C0
C0
FE
C0
C0
C0
C0
FE
ENDCHAR

STARTCHAR F
ENCODING 70
SWIDTH 544 0
DWIDTH 9 0
BBX 7 10 1 0
BITMAP
FE
C0
C0
C0
FE
C0
C0
C0
C0
C0
ENDCHAR

STARTCHAR G
ENCODING 71
SWIDTH 665 0
DWIDTH 11 0
BBX 9 10 1 0
BITMAP
3E00
6300
C180
C000
C000
CF80
C180
C180
6180
3F00
ENDCHAR

STARTCHAR H
ENCODING 72
SWIDTH 605 0
DWIDTH 10 0
BBX 8 10 1 0
BITMAP
C3
C3
C3
C3
FF
C3
C3
C3
C3
C3
ENDCHAR

STARTCHAR I
ENCODING 73
SWIDTH 242 0
DWIDTH 4 0
BBX 2 10 1 0
BITMAP
C0
C0
C0
C0
C0
C0
C0
C0
C0
C0
ENDCHAR

STARTCHAR J
ENCODING 74
SWIDTH 544 0
DWIDTH 9 0
BBX 7 10 1 0
BITMAP
06
06
06
06
06
06
06
C6
C6
7C
ENDCHAR

STARTCHAR K
ENCODING 75
SWIDTH 605 0
DWIDTH 10 0
BBX 8 10 1 0
BITMAP
C3
C6
CC
D8
F0
F0
D8
CC
C6
C3
ENDCHAR

STARTCHAR L
ENCODING 76
SWIDTH 544 0
DWIDTH 9 0
BBX 7 10 1 0
BITMAP
C0
C0
C0
C0
C0
C0
C0
C0
C0
FE
ENDCHAR

STARTCHAR M
ENCODING 77
SWIDTH 786 0
DWIDTH 13 0
BBX 11 10 1 0
BITMAP
E0E0
E0E0
F1E0
F1E0
DB60
DB60
CE60
CE60
C460
C060
ENDCHAR

STARTCHAR N
ENCODING 78
SWIDTH 665 0
DWIDTH 11 0
BBX 9 10 1 0
BITMAP
E180
F180
F180
D980
D980
CD80
CD80
C780
C780
C380
ENDCHAR

STARTCHAR O
ENCODING 79
SWIDTH 665 0
DWIDTH 11 0
BBX 9 10 1 0
BITMAP
3E00
6300
C180
C180
C180
C180
C180
C180
6300
3E00
ENDCHAR

STARTCHAR P
ENCODING 80
SWIDTH 544 0
DWIDTH 9 0
BBX 7 10 1 0
BITMAP
FC
C6
C6
C6
C6
FC
C0
C0
C0
C0
ENDCHAR

STARTCHAR Q
ENCODING 81
SWIDTH 665 0
DWIDTH 11 0
BBX 9 11 1 -1
BITMAP
3E00
6300
C180
C180
C180
C180
C180
CD80
6700
3F00
0180
ENDCHAR

STARTCHAR R
ENCODING 82
SWIDTH 544 0
DWIDTH 9 0
BBX 7 10 1 0
BITMAP
FC
C6
C6
C6
FC
C6
C6
C6
C6
C6
ENDCHAR

STARTCHAR S
ENCODING 83
SWIDTH 544 0
DWIDTH 9 0
BBX 7 10 1 0
BITMAP
7C
C6
C6
E0
78
1C
0E
C6
C6
7C
ENDCHAR

STARTCHAR T
ENCODING 84
SWIDTH 484 0
DWIDTH 8 0
BBX 8 10 0 0
BITMAP
FF
18
18
18
18
18
18
18
18
18
ENDCHAR

STARTCHAR U
ENCODING 85
SWIDTH 605 0
DWIDTH 10 0
BBX 8 10 1 0
BITMAP
C3
C3
C3
C3
C3
C3
C3
C3
E7
7E
ENDCHAR

STARTCHAR V
ENCODING 86
SWIDTH 605 0
DWIDTH 10 0
BBX 10 10 0 0
BITMAP
C0C0
C0C0
6180
6180
3300
3300
1200
1E00
0C00
0C00
ENDCHAR

STARTCHAR W
ENCODING 87
SWIDTH 786 0
DWIDTH 13 0
BBX 13 10 0 0
BITMAP
C218
C718
C718
CD98
6DB0
6DB0
68B0
38E0
3060
3060
ENDCHAR

STARTCHAR X
ENCODING 88
SWIDTH 665 0
DWIDTH 11 0
BBX 11 10 0 0
BITMAP
C060
60C0
3180
1B00
0E00
0E00
1B00
3180
60C0
C060
ENDCHAR

STARTCHAR Y
ENCODING 89
SWIDTH 605 0
DWIDTH 10 0
BBX 8 10 1 0
BITMAP
C3
C3
66
66
3C
18
18
18
18
18
ENDCHAR

STARTCHAR Z
ENCODING 90
SWIDTH 605 0
DWIDTH 10 0
BBX 8 10 1 0
BITMAP
FF
03
06
0C
18
18
30
60
C0
FF
ENDCHAR

STARTCHAR bracketleft
ENCODING 91
SWIDTH 363 0
DWIDTH 6 0
BBX 4 14 1 -2
BITMAP
F0
C0
C0
C0
C0
C0
C0
C0
C0
C0
C0
C0
C0
F0
ENDCHAR

STARTCHAR backslash
ENCODING 92
SWIDTH 484 0
DWIDTH 8 0
BBX 8 14 0 -2
BITMAP
C0
C0
60
60
30
30
18
18
0C
0C
06
06
03
03
ENDCHAR

STARTCHAR bracketright
ENCODING 93
SWIDTH 363 0
DWIDTH 6 0
BBX 4 14 1 -2
BITMAP
F0
30
30
30
30
30
30
30
30
30
30
30
30
F0
ENDCHAR

STARTCHAR asciicircum
ENCODING 94
SWIDTH 605 0
DWIDTH 10 0
BBX 6 3 2 7
BITMAP
30
78
CC
ENDCHAR

STARTCHAR underscore
ENCODING 95
SWIDTH 423 0
DWIDTH 7 0
BBX 7 1 0 -1
BITMAP
FE
ENDCHAR

STARTCHAR grave
ENCODING 96
SWIDTH 302 0
DWIDTH 5 0
BBX 3 4 1 7
BITMAP
20
60
C0
C0
ENDCHAR

STARTCHAR a
ENCODING 97
SWIDTH 484 0
DWIDTH 8 0
BBX 6 7 1 0
BITMAP
78
CC
0C
7C
CC
CC
7C
ENDCHAR

STARTCHAR b
ENCODING 98
SWIDTH 544 0
DWIDTH 9 0
BBX 7 10 1 0
BITMAP
C0
C0
C0
DC
E6
C6
C6
C6
E6
DC
ENDCHAR

STARTCHAR c
ENCODING 99
SWIDTH 544 0
DWIDTH 9 0
BBX 7 7 1 0
BITMAP
7C
C6
C0
C0
C0
C6
7C
ENDCHAR

STARTCHAR d
ENCODING 100
SWIDTH 544 0
DWIDTH 9 0
BBX 7 10 1 0
BITMAP
06
06
06
76
CE
C6
C6
C6
CE
76
ENDCHAR

STARTCHAR e
ENCODING 101
SWIDTH 544 0
DWIDTH 9 0
BBX 7 7 1 0
BITMAP
7C
C6
C6
FE
C0
C6
7C
ENDCHAR

STARTCHAR f
ENCODING 102
SWIDTH 363 0
DWIDTH 6 0
BBX 5 10 1 0
BITMAP
38
60
60
F8
60
60
60
60
60
60
ENDCHAR

STARTCHAR g
ENCODING 103
SWIDTH 544 0
DWIDTH 9 0
BBX 7 10 1 -3
BITMAP
76
CE
C6
C6
C6
CE
76
06
C6
7C
ENDCHAR

STARTCHAR h
ENCODING 104
SWIDTH 544 0
DWIDTH 9 0
BBX 7 10 1 0
BITMAP
C0
C0
C0
DC
E6
C6
C6
C6
C6
C6
ENDCHAR

STARTCHAR i
ENCODING 105
SWIDTH 242 0
DWIDTH 4 0
BBX 2 10 1 0
BITMAP
C0
C0
00
C0
C0
C0
C0
C0
C0
C0
ENDCHAR

STARTCHAR j
ENCODING 106
SWIDTH 302 0
DWIDTH 5 0
BBX 3 13 1 -3
BITMAP
60
60
00
60
60
60
60
60
60
60
60
60
C0
ENDCHAR

STARTCHAR k
ENCODING 107
SWIDTH 484 0
DWIDTH 8 0
BBX 6 10 1 0
BITMAP
C0
C0
C0
CC
D8
F0
E0
F0
D8
CC
ENDCHAR

STARTCHAR l
ENCODING 108
SWIDTH 242 0
DWIDTH 4 0
BBX 2 10 1 0
BITMAP
C0
C0
C0
C0
C0
C0
C0
C0
C0
C0
ENDCHAR

STARTCHAR m
ENCODING 109
SWIDTH 726 0
DWIDTH 12 0
BBX 10 7 1 0
BITMAP
DD80
EEC0
CCC0
CCC0
CCC0
CCC0
CCC0
ENDCHAR

STARTCHAR n
ENCODING 110
SWIDTH 544 0
DWIDTH 9 0
BBX 7 7 1 0
BITMAP
DC
E6
C6
C6
C6
C6
C6
ENDCHAR

STARTCHAR o
ENCODING 111
SWIDTH 544 0
DWIDTH 9 0
BBX 7 7 1 0
BITMAP
7C
C6
C6
C6
C6
C6
7C
ENDCHAR

STARTCHAR p
ENCODING 112
SWIDTH 544 0
DWIDTH 9 0
BBX 7 10 1 -3
BITMAP
DC
E6
C6
C6
C6
E6
DC
C0
C0
C0
ENDCHAR

STARTCHAR q
ENCODING 113
SWIDTH 544 0
DWIDTH 9 0
BBX 7 10 1 -3
BITMAP
76
CE
C6
C6
C6
CE
76
06
06
06
ENDCHAR

STARTCHAR r
ENCODING 114
SWIDTH 363 0
DWIDTH 6 0
BBX 5 7 1 0
BITMAP
D8
E0
C0
C0
C0
C0
C0
ENDCHAR

STARTCHAR s
ENCODING 115
SWIDTH 484 0
DWIDTH 8 0
BBX 6 7 1 0
BITMAP
78
CC
E0
78
1C
CC
78
ENDCHAR

STARTCHAR t
ENCODING 116
SWIDTH 302 0
DWIDTH 5 0
BBX 5 9 0 0
BITMAP
20
60
F8
60
60
60
60
60
38
ENDCHAR

STARTCHAR u
ENCODING 117
SWIDTH 544 0
DWIDTH 9 0
BBX 7 7 1 0
BITMAP
C6
C6
C6
C6
C6
CE
76
ENDCHAR

STARTCHAR v
ENCODING 118
SWIDTH 605 0
DWIDTH 10 0
BBX 8 7 1 0
BITMAP
C3
C3
66
66
3C
18
18
ENDCHAR

STARTCHAR w
ENCODING 119
SWIDTH 726 0
DWIDTH 12 0
BBX 12 7 0 0
BITMAP
C630
C630
6F60
6F60
39E0
30C0
30C0
ENDCHAR

STARTCHAR x
ENCODING 120
SWIDTH 484 0
DWIDTH 8 0
BBX 8 7 0 0
BITMAP
C3
66
3C
18
3C
66
C3
ENDCHAR

STARTCHAR y
ENCODING 121
SWIDTH 544 0
DWIDTH 9 0
BBX 7 10 1 -3
BITMAP
C6
C6
6C
6C
38
38
30
30
60
60
ENDCHAR

STARTCHAR z
ENCODING 122
SWIDTH 484 0
DWIDTH 8 0
BBX 6 7 1 0
BITMAP
FC
0C
18
30
60
C0
FC
ENDCHAR

STARTCHAR braceleft
ENCODING 123
SWIDTH 484 0
DWIDTH 8 0
BBX 6 14 1 -2
BITMAP
1C
30
30
30
30
30
E0
30
30
30
30
30
30
1C
ENDCHAR

STARTCHAR bar
ENCODING 124
SWIDTH 363 0
DWIDTH 6 0
BBX 2 12 2 -1
BITMAP
C0
C0
C0
C0
C0
C0
C0
C0
C0
C0
C0
C0
ENDCHAR

STARTCHAR braceright
ENCODING 125
SWIDTH 484 0
DWIDTH 8 0
BBX 6 14 1 -2
BITMAP
E0
30
30
30
30
30
1C
30
30
30
30
30
30
E0
ENDCHAR

STARTCHAR asciitilde
ENCODING 126
SWIDTH 665 0
DWIDTH 11 0
BBX 9 4 1 3
BITMAP
3000
7980
CF00
0600
ENDCHAR

STARTCHAR C000177
ENCODING 127
SWIDTH 726 0
DWIDTH 12 0
BBX 12 17 0 -4
BITMAP
AAA0
5550
AAA0
5550
AAA0
5550
AAA0
5550
AAA0
5550
AAA0
5550
AAA0
5550
AAA0
5550
AAA0
ENDCHAR

STARTCHAR NoBreakSpace
ENCODING 160
SWIDTH 242 0
DWIDTH 4 0
BBX 1 1 0 0
BITMAP
00
ENDCHAR

STARTCHAR CyrillicIo
ENCODING 161
SWIDTH 544 0
DWIDTH 9 0
BBX 7 13 1 0
BITMAP
48
48
00
FE
C0
C0
C0
FE
C0
C0
C0
C0
FE
ENDCHAR

STARTCHAR SerboCroatDje
ENCODING 162
SWIDTH 665 0
DWIDTH 11 0
BBX 10 10 0 0
BITMAP
FF00
1800
1800
1800
1F80
18C0
18C0
18C0
18C0
1980
ENDCHAR

STARTCHAR MacedonianGje
ENCODING 163
SWIDTH 544 0
DWIDTH 9 0
BBX 7 13 1 0
BITMAP
18
30
00
FE
C0
C0
C0
C0
C0
C0
C0
C0
C0
ENDCHAR

STARTCHAR UkrainianIe
ENCODING 164
SWIDTH 665 0
DWIDTH 11 0
BBX 9 10 1 0
BITMAP
3E00
6300
C180
C000
F800
C000
C000
C180
6300
3E00
ENDCHAR

STARTCHAR MacedonianDze
ENCODING 165
SWIDTH 544 0
DWIDTH 9 0
BBX 7 10 1 0
BITMAP
7C
C6
C6
E0
78
1C
0E
C6
C6
7C
ENDCHAR

STARTCHAR ByeloRuUkrainI
ENCODING 166
SWIDTH 242 0
DWIDTH 4 0
BBX 2 10 1 0
BITMAP
C0
C0
C0
C0
C0
C0
C0
C0
C0
C0
ENDCHAR

STARTCHAR UkrainianYi
ENCODING 167
SWIDTH 242 0
DWIDTH 4 0
BBX 4 13 0 0
BITMAP
90
90
00
60
60
60
60
60
60
60
60
60
60
ENDCHAR

STARTCHAR CyrillicJe
ENCODING 168
SWIDTH 544 0
DWIDTH 9 0
BBX 7 10 1 0
BITMAP
06
06
06
06
06
06
06
C6
C6
7C
ENDCHAR

STARTCHAR CyrillicLje
ENCODING 169
SWIDTH 726 0
DWIDTH 12 0
BBX 11 10 0 0
BITMAP
3E00
6600
6600
6600
67C0
6660
6660
6660
6660
C7C0
ENDCHAR

STARTCHAR CyrillicNje
ENCODING 170
SWIDTH 726 0
DWIDTH 12 0
BBX 10 10 1 0
BITMAP
CC00
CC00
CC00
CC00
FF80
CCC0
CCC0
CCC0
CCC0
CF80
ENDCHAR

STARTCHAR SerboCroatTshe
ENCODING 171
SWIDTH 665 0
DWIDTH 11 0
BBX 10 10 0 0
BITMAP
FF00
1800
1800
1800
1F80
18C0
18C0
18C0
18C0
18C0
ENDCHAR

STARTCHAR MacedonianKje
ENCODING 172
SWIDTH 605 0
DWIDTH 10 0
BBX 8 13 1 0
BITMAP
0C
18
00
C3
C6
CC
D8
F0
F0
D8
CC
C6
C3
ENDCHAR

STARTCHAR SoftHyphen
ENCODING 173
SWIDTH 605 0
DWIDTH 10 0
BBX 8 2 1 4
BITMAP
FF
FF
ENDCHAR

STARTCHAR ByeloRusShortU
ENCODING 174
SWIDTH 544 0
DWIDTH 9 0
BBX 7 13 1 0
BITMAP
6C
38
00
C6
C6
C6
C6
C6
7E
06
06
C6
7C
ENDCHAR

STARTCHAR CyrillicDzhe
ENCODING 175
SWIDTH 605 0
DWIDTH 10 0
BBX 8 12 1 -2
BITMAP
C3
C3
C3
C3
C3
C3
C3
C3
C3
FF
18
18
ENDCHAR

STARTCHAR CyrillicA
ENCODING 176
SWIDTH 605 0
DWIDTH 10 0
BBX 10 10 0 0
BITMAP
0C00
0C00
1E00
1200
3300
3300
7F80
6180
C0C0
C0C0
ENDCHAR

STARTCHAR CyrillicBe
ENCODING 177
SWIDTH 544 0
DWIDTH 9 0
BBX 7 10 1 0
BITMAP
FE
C0
C0
C0
FC
C6
C6
C6
C6
FC
ENDCHAR

STARTCHAR CyrillicVe
ENCODING 178
SWIDTH 544 0
DWIDTH 9 0
BBX 7 10 1 0
BITMAP
FC
C6
C6
C6
FC
C6
C6
C6
C6
FC
ENDCHAR

STARTCHAR CyrillicGhe
ENCODING 179
SWIDTH 544 0
DWIDTH 9 0
BBX 7 10 1 0
BITMAP
FE
C0
C0
C0
C0
C0
C0
C0
C0
C0
ENDCHAR

STARTCHAR CyrillicDe
ENCODING 180
SWIDTH 605 0
DWIDTH 10 0
BBX 9 12 1 -2
BITMAP
3F00
6300
6300
6300
6300
6300
6300
6300
6300
FF80
C180
C180
ENDCHAR

STARTCHAR CyrillicIe
ENCODING 181
SWIDTH 544 0
DWIDTH 9 0
BBX 7 10 1 0
BITMAP
FE
C0
C0
C0
FE
C0
C0
C0
C0
FE
ENDCHAR

STARTCHAR CyrillicZhe
ENCODING 182
SWIDTH 847 0
DWIDTH 14 0
BBX 12 10 1 0
BITMAP
C630
6660
36C0
1F80
0F00
1F80
36C0
6660
C630
C630
ENDCHAR

STARTCHAR CyrillicZe
ENCODING 183
SWIDTH 544 0
DWIDTH 9 0
BBX 7 10 1 0
BITMAP
7C
C6
C6
06
1C
06
06
C6
C6
7C
ENDCHAR

STARTCHAR CyrillicI
ENCODING 184
SWIDTH 665 0
DWIDTH 11 0
BBX 9 10 1 0
BITMAP
C380
C780
C780
CD80
CD80
D980
D980
F180
F180
E180
ENDCHAR

STARTCHAR CyrillicShortI
ENCODING 185
SWIDTH 665 0
DWIDTH 11 0
BBX 9 13 1 0
BITMAP
3600
1C00
0000
C380
C780
C780
CD80
CD80
D980
D980
F180
F180
E180
ENDCHAR

STARTCHAR CyrillicKa
ENCODING 186
SWIDTH 605 0
DWIDTH 10 0
BBX 8 10 1 0
BITMAP
C3
C6
CC
D8
F0
F0
D8
CC
C6
C3
ENDCHAR

STARTCHAR CyrillicEl
ENCODING 187
SWIDTH 605 0
DWIDTH 10 0
BBX 8 10 1 0
BITMAP
3F
63
63
63
63
63
63
63
63
C3
ENDCHAR

STARTCHAR CyrillicEm
ENCODING 188
SWIDTH 786 0
DWIDTH 13 0
BBX 11 10 1 0
BITMAP
E0E0
E0E0
F1E0
F1E0
DB60
DB60
CE60
CE60
C460
C060
ENDCHAR

STARTCHAR CyrillicEn
ENCODING 189
SWIDTH 605 0
DWIDTH 10 0
BBX 8 10 1 0
BITMAP
C3
C3
C3
C3
FF
C3
C3
C3
C3
C3
ENDCHAR

STARTCHAR CyrillicO
ENCODING 190
SWIDTH 665 0
DWIDTH 11 0
BBX 9 10 1 0
BITMAP
3E00
6300
C180
C180
C180
C180
C180
C180
6300
3E00
ENDCHAR

STARTCHAR CyrillicPe
ENCODING 191
SWIDTH 605 0
DWIDTH 10 0
BBX 8 10 1 0
BITMAP
FF
C3
C3
C3
C3
C3
C3
C3
C3
C3
ENDCHAR

STARTCHAR CyrillicEr
ENCODING 192
SWIDTH 544 0
DWIDTH 9 0
BBX 7 10 1 0
BITMAP
FC
C6
C6
C6
C6
FC
C0
C0
C0
C0
ENDCHAR

STARTCHAR CyrillicEs
ENCODING 193
SWIDTH 665 0
DWIDTH 11 0
BBX 9 10 1 0
BITMAP
3E00
6300
C180
C000
C000
C000
C000
C180
6300
3E00
ENDCHAR

STARTCHAR CyrillicTe
ENCODING 194
SWIDTH 484 0
DWIDTH 8 0
BBX 8 10 0 0
BITMAP
FF
18
18
18
18
18
18
18
18
18
ENDCHAR

STARTCHAR CyrillicU
ENCODING 195
SWIDTH 544 0
DWIDTH 9 0
BBX 7 10 1 0
BITMAP
C6
C6
C6
C6
C6
7E
06
06
C6
7C
ENDCHAR

STARTCHAR CyrillicEf
ENCODING 196
SWIDTH 847 0
DWIDTH 14 0
BBX 12 10 1 0
BITMAP
0600
7FE0
C630
C630
C630
C630
C630
7FE0
0600
0600
ENDCHAR

STARTCHAR CyrillicHa
ENCODING 197
SWIDTH 665 0
DWIDTH 11 0
BBX 11 10 0 0
BITMAP
C060
60C0
3180
1B00
0E00
0E00
1B00
3180
60C0
C060
ENDCHAR

STARTCHAR CyrillicTse
ENCODING 198
SWIDTH 665 0
DWIDTH 11 0
BBX 9 12 1 -2
BITMAP
C300
C300
C300
C300
C300
C300
C300
C300
C300
FF80
0180
0180
ENDCHAR

STARTCHAR CyrillicChe
ENCODING 199
SWIDTH 605 0
DWIDTH 10 0
BBX 8 10 1 0
BITMAP
C3
C3
C3
C3
C3
7F
03
03
03
03
ENDCHAR

STARTCHAR CyrillicSha
ENCODING 200
SWIDTH 726 0
DWIDTH 12 0
BBX 10 10 1 0
BITMAP
CCC0
CCC0
CCC0
CCC0
CCC0
CCC0
CCC0
CCC0
CCC0
FFC0
ENDCHAR

STARTCHAR CyrillicShcha
ENCODING 201
SWIDTH 786 0
DWIDTH 13 0
BBX 11 12 1 -2
BITMAP
CCC0
CCC0
CCC0
CCC0
CCC0
CCC0
CCC0
CCC0
CCC0
FFE0
0060
0060
ENDCHAR

STARTCHAR CyrillHardSign
ENCODING 202
SWIDTH 665 0
DWIDTH 11 0
BBX 9 10 1 0
BITMAP
F000
3000
3000
3000
3F00
3180
3180
3180
3180
3F00
ENDCHAR

STARTCHAR CyrillicYeru
ENCODING 203
SWIDTH 726 0
DWIDTH 12 0
BBX 10 10 1 0
BITMAP
C0C0
C0C0
C0C0
C0C0
FCC0
C6C0
C6C0
C6C0
C6C0
FCC0
ENDCHAR

STARTCHAR CyrillSoftSign
ENCODING 204
SWIDTH 544 0
DWIDTH 9 0
BBX 7 10 1 0
BITMAP
C0
C0
C0
C0
FC
C6
C6
C6
C6
FC
ENDCHAR

STARTCHAR CyrillicE
ENCODING 205
SWIDTH 665 0
DWIDTH 11 0
BBX 9 10 1 0
BITMAP
3E00
6300
C180
0180
1F80
0180
0180
C180
6300
3E00
ENDCHAR

STARTCHAR CyrillicYu
ENCODING 206
SWIDTH 847 0
DWIDTH 14 0
BBX 12 10 1 0
BITMAP
C7C0
CC60
D830
D830
F830
D830
D830
D830
CC60
C7C0
ENDCHAR

STARTCHAR CyrillicYa
ENCODING 207
SWIDTH 544 0
DWIDTH 9 0
BBX 7 10 1 0
BITMAP
7E
C6
C6
C6
7E
36
66
66
C6
C6
ENDCHAR

STARTCHAR cyrillicA
ENCODING 208
SWIDTH 484 0
DWIDTH 8 0
BBX 6 7 1 0
BITMAP
78
CC
0C
7C
CC
CC
7C
ENDCHAR

STARTCHAR cyrillicBe
ENCODING 209
SWIDTH 544 0
DWIDTH 9 0
BBX 7 11 1 0
BITMAP
0C
78
C0
C0
FC
C6
C6
C6
C6
C6
7C
ENDCHAR

STARTCHAR cyrillicVe
ENCODING 210
SWIDTH 544 0
DWIDTH 9 0
BBX 7 7 1 0
BITMAP
FC
C6
C6
FC
C6
C6
FC
ENDCHAR

STARTCHAR cyrillicGhe
ENCODING 211
SWIDTH 423 0
DWIDTH 7 0
BBX 5 7 1 0
BITMAP
F8
C0
C0
C0
C0
C0
C0
ENDCHAR

STARTCHAR cyrillicDe
ENCODING 212
SWIDTH 605 0
DWIDTH 10 0
BBX 8 9 1 -2
BITMAP
3E
66
66
66
66
66
FF
C3
C3
ENDCHAR

STARTCHAR cyrillicIe
ENCODING 213
SWIDTH 544 0
DWIDTH 9 0
BBX 7 7 1 0
BITMAP
7C
C6
C6
FE
C0
C6
7C
ENDCHAR

STARTCHAR cyrillicZhe
ENCODING 214
SWIDTH 726 0
DWIDTH 12 0
BBX 10 7 1 0
BITMAP
CCC0
6D80
3F00
1E00
3F00
6D80
CCC0
ENDCHAR

STARTCHAR cyrillicZe
ENCODING 215
SWIDTH 544 0
DWIDTH 9 0
BBX 7 7 1 0
BITMAP
7C
C6
06
1C
06
C6
7C
ENDCHAR

STARTCHAR cyrillicI
ENCODING 216
SWIDTH 544 0
DWIDTH 9 0
BBX 7 7 1 0
BITMAP
C6
CE
CE
D6
E6
E6
C6
ENDCHAR

STARTCHAR cyrillicShortI
ENCODING 217
SWIDTH 544 0
DWIDTH 9 0
BBX 7 10 1 0
BITMAP
6C
38
00
C6
CE
CE
D6
E6
E6
C6
ENDCHAR

STARTCHAR cyrillicKa
ENCODING 218
SWIDTH 484 0
DWIDTH 8 0
BBX 6 7 1 0
BITMAP
CC
D8
F0
E0
F0
D8
CC
ENDCHAR

STARTCHAR cyrillicEl
ENCODING 219
SWIDTH 544 0
DWIDTH 9 0
BBX 7 7 1 0
BITMAP
3E
66
66
66
66
66
C6
ENDCHAR

STARTCHAR cyrillicEm
ENCODING 220
SWIDTH 665 0
DWIDTH 11 0
BBX 9 7 1 0
BITMAP
C180
E380
F780
DD80
C980
C180
C180
ENDCHAR

STARTCHAR cyrillicEn
ENCODING 221
SWIDTH 544 0
DWIDTH 9 0
BBX 7 7 1 0
BITMAP
C6
C6
C6
FE
C6
C6
C6
ENDCHAR

STARTCHAR cyrillicO
ENCODING 222
SWIDTH 544 0
DWIDTH 9 0
BBX 7 7 1 0
BITMAP
7C
C6
C6
C6
C6
C6
7C
ENDCHAR

STARTCHAR cyrillicPe
ENCODING 223
SWIDTH 544 0
DWIDTH 9 0
BBX 7 7 1 0
BITMAP
FE
C6
C6
C6
C6
C6
C6
ENDCHAR

STARTCHAR cyrillicEr
ENCODING 224
SWIDTH 544 0
DWIDTH 9 0
BBX 7 10 1 -3
BITMAP
DC
E6
C6
C6
C6
E6
DC
C0
C0
C0
ENDCHAR

STARTCHAR cyrillicEs
ENCODING 225
SWIDTH 544 0
DWIDTH 9 0
BBX 7 7 1 0
BITMAP
7C
C6
C0
C0
C0
C6
7C
ENDCHAR

STARTCHAR cyrillicTe
ENCODING 226
SWIDTH 484 0
DWIDTH 8 0
BBX 6 7 1 0
BITMAP
FC
30
30
30
30
30
30
ENDCHAR

STARTCHAR cyrillicU
ENCODING 227
SWIDTH 544 0
DWIDTH 9 0
BBX 7 10 1 -3
BITMAP
C6
C6
6C
6C
38
38
30
30
60
60
ENDCHAR

STARTCHAR cyrillicEf
ENCODING 228
SWIDTH 726 0
DWIDTH 12 0
BBX 10 11 1 -3
BITMAP
0C00
7F80
CCC0
CCC0
CCC0
CCC0
CCC0
7F80
0C00
0C00
0C00
ENDCHAR

STARTCHAR cyrillicHa
ENCODING 229
SWIDTH 484 0
DWIDTH 8 0
BBX 8 7 0 0
BITMAP
C3
66
3C
18
3C
66
C3
ENDCHAR

STARTCHAR cyrillicTse
ENCODING 230
SWIDTH 605 0
DWIDTH 10 0
BBX 8 9 1 -2
BITMAP
C6
C6
C6
C6
C6
C6
FF
03
03
ENDCHAR

STARTCHAR cyrillicChe
ENCODING 231
SWIDTH 544 0
DWIDTH 9 0
BBX 7 7 1 0
BITMAP
C6
C6
C6
7E
06
06
06
ENDCHAR

STARTCHAR cyrillicSha
ENCODING 232
SWIDTH 605 0
DWIDTH 10 0
BBX 8 7 1 0
BITMAP
DB
DB
DB
DB
DB
DB
FF
ENDCHAR

STARTCHAR cyrillicShcha
ENCODING 233
SWIDTH 665 0
DWIDTH 11 0
BBX 9 9 1 -2
BITMAP
DB00
DB00
DB00
DB00
DB00
DB00
FF80
0180
0180
ENDCHAR

STARTCHAR cyrillHardSign
ENCODING 234
SWIDTH 605 0
DWIDTH 10 0
BBX 8 7 1 0
BITMAP
F0
30
3E
33
33
33
3E
ENDCHAR

STARTCHAR cyrillicYeru
ENCODING 235
SWIDTH 665 0
DWIDTH 11 0
BBX 9 7 1 0
BITMAP
C180
C180
F980
CD80
CD80
CD80
F980
ENDCHAR

STARTCHAR cyrillSoftSign
ENCODING 236
SWIDTH 484 0
DWIDTH 8 0
BBX 6 7 1 0
BITMAP
C0
C0
F8
CC
CC
CC
F8
ENDCHAR

STARTCHAR cyrillicE
ENCODING 237
SWIDTH 544 0
DWIDTH 9 0
BBX 7 7 1 0
BITMAP
7C
C6
06
3E
06
C6
7C
ENDCHAR

STARTCHAR cyrillicYu
ENCODING 238
SWIDTH 726 0
DWIDTH 12 0
BBX 10 7 1 0
BITMAP
CF80
D8C0
D8C0
F8C0
D8C0
D8C0
CF80
ENDCHAR

STARTCHAR cyrillicYa
ENCODING 239
SWIDTH 544 0
DWIDTH 9 0
BBX 7 7 1 0
BITMAP
7E
C6
C6
7E
36
66
C6
ENDCHAR

STARTCHAR NumberAcronym
ENCODING 240
SWIDTH 847 0
DWIDTH 14 0
BBX 12 10 1 0
BITMAP
C300
E320
E350
F350
D320
CB00
CF00
C770
C700
C300
ENDCHAR

STARTCHAR cyrillicIo
ENCODING 241
SWIDTH 544 0
DWIDTH 9 0
BBX 7 10 1 0
BITMAP
24
24
00
7C
C6
C6
FE
C0
C6
7C
ENDCHAR

STARTCHAR serboCroatDje
ENCODING 242
SWIDTH 544 0
DWIDTH 9 0
BBX 8 12 0 -2
BITMAP
60
F8
60
6E
73
63
63
63
63
63
06
0C
ENDCHAR

STARTCHAR macedonianGje
ENCODING 243
SWIDTH 363 0
DWIDTH 6 0
BBX 5 10 1 0
BITMAP
30
60
00
F8
C0
C0
C0
C0
C0
C0
ENDCHAR

STARTCHAR ukrainianIe
ENCODING 244
SWIDTH 544 0
DWIDTH 9 0
BBX 7 7 1 0
BITMAP
7C
C6
C0
F8
C0
C6
7C
ENDCHAR

STARTCHAR macedonianDze
ENCODING 245
SWIDTH 484 0
DWIDTH 8 0
BBX 6 7 1 0
BITMAP
78
CC
E0
78
1C
CC
78
ENDCHAR

STARTCHAR byeloRuUkrainI
ENCODING 246
SWIDTH 242 0
DWIDTH 4 0
BBX 2 10 1 0
BITMAP
C0
C0
00
C0
C0
C0
C0
C0
C0
C0
ENDCHAR

STARTCHAR ukrainianYi
ENCODING 247
SWIDTH 242 0
DWIDTH 4 0
BBX 4 10 0 0
BITMAP
90
90
00
60
60
60
60
60
60
60
ENDCHAR

STARTCHAR cyrillicJe
ENCODING 248
SWIDTH 302 0
DWIDTH 5 0
BBX 3 13 1 -3
BITMAP
60
60
00
60
60
60
60
60
60
60
60
60
C0
ENDCHAR

STARTCHAR cyrillicLje
ENCODING 249
SWIDTH 786 0
DWIDTH 13 0
BBX 11 7 1 0
BITMAP
3E00
6600
6600
67C0
6660
6660
C7C0
ENDCHAR

STARTCHAR cyrillicNje
ENCODING 250
SWIDTH 726 0
DWIDTH 12 0
BBX 10 7 1 0
BITMAP
CC00
CC00
CC00
FF80
CCC0
CCC0
CF80
ENDCHAR

STARTCHAR serboCroatTshe
ENCODING 251
SWIDTH 544 0
DWIDTH 9 0
BBX 8 10 0 0
BITMAP
60
F8
60
6E
73
63
63
63
63
63
ENDCHAR

STARTCHAR macedonianKje
ENCODING 252
SWIDTH 484 0
DWIDTH 8 0
BBX 6 10 1 0
BITMAP
18
30
00
CC
D8
F0
E0
F0
D8
CC
ENDCHAR

STARTCHAR ParagraphSign
ENCODING 253
SWIDTH 423 0
DWIDTH 7 0
BBX 5 12 1 -2
BITMAP
70
98
C8
60
B0
98
C8
68
30
98
C8
70
ENDCHAR

STARTCHAR byeloRusShortU
ENCODING 254
SWIDTH 544 0
DWIDTH 9 0
BBX 7 13 1 -3
BITMAP
6C
38
00
C6
C6
6C
6C
38
38
30
30
60
60
ENDCHAR

STARTCHAR cyrillicDzhe
ENCODING 255
SWIDTH 605 0
DWIDTH 10 0
BBX 8 9 1 -2
BITMAP
C3
C3
C3
C3
C3
C3
FF
18
18
ENDCHAR
ENDFONT
